<svg xmlns="http://www.w3.org/2000/svg" xmlns:xlink="http://www.w3.org/1999/xlink" width="500" zoomAndPan="magnify" viewBox="0 0 375 253.499997" height="338" preserveAspectRatio="xMidYMid meet" version="1.2"><defs><clipPath id="811adfbf50"><path d="M 0.367188 169 L 374.628906 169 L 374.628906 205 L 0.367188 205 Z M 0.367188 169 "/></clipPath><clipPath id="9658359e15"><path d="M 121.992188 121.625 L 252.992188 121.625 L 252.992188 252.621094 L 121.992188 252.621094 Z M 121.992188 121.625 "/></clipPath><clipPath id="517b7d78e5"><path d="M 187.492188 252.621094 C 223.667969 252.621094 252.992188 223.296875 252.992188 187.125 C 252.992188 150.949219 223.667969 121.625 187.492188 121.625 C 151.316406 121.625 121.992188 150.949219 121.992188 187.125 C 121.992188 223.296875 151.316406 252.621094 187.492188 252.621094 Z M 187.492188 252.621094 "/></clipPath><clipPath id="73a3fa39ab"><path d="M 0.367188 0 L 374.628906 0 L 374.628906 253 L 0.367188 253 Z M 0.367188 0 "/></clipPath></defs><g id="113929018e"><path style="fill:none;stroke-width:37;stroke-linecap:butt;stroke-linejoin:miter;stroke:#000000;stroke-opacity:1;stroke-miterlimit:4;" d="M -0.00130463 18.498692 L 210.955783 18.498692 " transform="matrix(0,0.935654,-0.935654,0,204.808372,0.00122068)"/><g clip-rule="nonzero" clip-path="url(#811adfbf50)"><path style="fill:none;stroke-width:37;stroke-linecap:butt;stroke-linejoin:miter;stroke:#000000;stroke-opacity:1;stroke-miterlimit:4;" d="M -0.00204026 18.49801 L 400.002323 18.49801 " transform="matrix(0.935654,0,0,0.935654,0.369096,169.821172)"/></g><g clip-rule="nonzero" clip-path="url(#9658359e15)"><g clip-rule="nonzero" clip-path="url(#517b7d78e5)"><path style=" stroke:none;fill-rule:nonzero;fill:#000000;fill-opacity:1;" d="M 252.992188 252.621094 L 121.992188 252.621094 L 121.992188 121.625 L 252.992188 121.625 Z M 252.992188 252.621094 "/></g></g><g clip-rule="nonzero" clip-path="url(#73a3fa39ab)"><path style="fill:none;stroke-width:37;stroke-linecap:butt;stroke-linejoin:miter;stroke:#000000;stroke-opacity:1;stroke-miterlimit:4;" d="M 0.00177819 18.499584 L 195.327342 18.499584 " transform="matrix(-0.660496,0.660496,-0.660496,-0.660496,328.970073,70.139599)"/><path style="fill:none;stroke-width:37;stroke-linecap:butt;stroke-linejoin:miter;stroke:#000000;stroke-opacity:1;stroke-miterlimit:4;" d="M -0.000302145 18.499698 L 195.331176 18.499698 " transform="matrix(0.660496,0.660496,-0.660496,0.660496,70.508235,45.660133)"/></g></g></svg>